<svg xmlns="http://www.w3.org/2000/svg" width="256" height="256"><path fill-opacity=".016" d="M0 128.004v128.004l128.25-.254 128.25-.254.254-127.75L257.008 0H0v128.004m.485.496c0 70.4.119 99.053.265 63.672.146-35.38.146-92.98 0-128C.604 29.153.485 58.1.485 128.5" fill="#4682b4" fill-rule="evenodd"/><path fill-opacity=".191" d="M0 128.004v128.004l128.25-.254 128.25-.254.254-127.75L257.008 0H0v128.004m.485.496c0 70.4.119 99.053.265 63.672.146-35.38.146-92.98 0-128C.604 29.153.485 58.1.485 128.5m67.1-74.258c-5.546 1.466-11.94 8.141-13.417 14.007-1.642 6.518-1.642 112.984 0 119.502 1.58 6.277 7.804 12.501 14.081 14.081 6.518 1.642 112.984 1.642 119.502 0 6.277-1.58 12.501-7.804 14.081-14.081 1.642-6.518 1.642-112.984 0-119.502-1.58-6.277-7.804-12.501-14.081-14.081-6.045-1.523-114.38-1.456-120.166.074m2.779 12.928c-1.175.568-2.637 2.134-3.25 3.479-1.562 3.428-1.565 111.266-.004 114.694.611 1.34 2.207 2.936 3.547 3.547 3.42 1.558 111.266 1.558 114.686 0 1.34-.611 2.936-2.207 3.547-3.547 1.558-3.42 1.558-111.266 0-114.686-.611-1.34-2.207-2.936-3.547-3.547-3.269-1.489-111.896-1.433-114.979.06m65.917 53.041l-15.212 15.211-8.412-8.211c-9.078-8.86-11.891-9.977-15.657-6.211-4.073 4.073-2.83 6.574 9.298 18.702 9.311 9.312 11.819 11.298 14.26 11.298 2.511 0 5.812-2.854 21.702-18.76 11.931-11.943 18.74-19.492 18.74-20.777 0-3.569-2.826-6.463-6.311-6.463-2.79 0-5.137 1.939-18.408 15.211" fill="#4682b4" fill-rule="evenodd"/><path fill-opacity=".089" d="M0 128.004v128.004l128.25-.254 128.25-.254.254-127.75L257.008 0H0v128.004m.485.496c0 70.4.119 99.053.265 63.672.146-35.38.146-92.98 0-128C.604 29.153.485 58.1.485 128.5M65.5 54.896c-2.2 1.018-5.214 3.146-6.697 4.728-5.917 6.31-5.805 4.977-5.781 68.594.021 54.595.139 58.535 1.874 62.282 2.269 4.902 6.392 8.888 11.322 10.947 5.594 2.337 117.97 2.337 123.564 0 4.93-2.059 9.053-6.045 11.322-10.947 1.736-3.749 1.852-7.666 1.852-62.5s-.116-58.751-1.852-62.5c-1.018-2.2-3.146-5.214-4.728-6.697-6.31-5.917-4.977-5.805-68.594-5.781-54.595.021-58.535.139-62.282 1.874m3.155 13.933C67.155 70.486 67 76.058 67 128.174c0 54.451.097 57.604 1.829 59.171 1.657 1.5 7.229 1.655 59.345 1.655 54.451 0 57.604-.097 59.171-1.829 1.5-1.657 1.655-7.229 1.655-59.345 0-54.451-.097-57.604-1.829-59.171-1.657-1.5-7.229-1.655-59.345-1.655-54.451 0-57.604.097-59.171 1.829m68.182 50.864l-15.805 15.693-8.394-8.193c-6.69-6.531-8.996-8.193-11.361-8.193-3.693 0-6.277 2.731-6.277 6.632 0 2.475 2.008 4.958 11.962 14.789 10.897 10.763 12.21 11.756 14.75 11.151 1.802-.43 9.242-7.121 21.038-18.922 15.874-15.881 18.25-18.665 18.25-21.382 0-3.276-3.742-7.268-6.814-7.268-.85 0-8.657 7.062-17.349 15.693" fill="#4682b4" fill-rule="evenodd"/><path fill-opacity=".357" d="M0 128.004v128.004l128.25-.254 128.25-.254.254-127.75L257.008 0H0v128.004m.485.496c0 70.4.119 99.053.265 63.672.146-35.38.146-92.98 0-128C.604 29.153.485 58.1.485 128.5m63.422-73.173c-2.424 1.279-5.757 4.243-7.407 6.586l-3 4.259v123.656l3 4.259c1.65 2.343 4.983 5.307 7.407 6.586L68.315 203h119.37l4.408-2.327c2.424-1.279 5.757-4.243 7.407-6.586l3-4.259V66.172l-3-4.259c-1.65-2.343-4.983-5.307-7.407-6.586L187.685 53H68.315l-4.408 2.327M69 69c-1.953 1.953-2 3.333-2 59s.047 57.047 2 59c1.953 1.953 3.333 2 59 2s57.047-.047 59-2c1.953-1.953 2-3.333 2-59s-.047-57.047-2-59c-1.953-1.953-3.333-2-59-2s-57.047.047-59 2m67.039 50.492l-15.602 15.492-7.868-7.914c-4.327-4.353-8.605-8.108-9.506-8.343-2.547-.666-5.782.915-7.624 3.725-2.556 3.901-.76 6.861 11.482 18.925 8.653 8.527 11.346 10.623 13.651 10.623 2.396 0 6.082-3.211 22.281-19.41 18.104-18.104 19.364-19.6 18.735-22.25-.37-1.562-1.604-3.627-2.741-4.59-4.449-3.764-6.302-2.647-22.808 13.742" fill="#4682b4" fill-rule="evenodd"/></svg>